<svg id="Layer_1" data-name="Layer 1" xmlns="http://www.w3.org/2000/svg" viewBox="0 0 295.06 128.33"><defs><style>.cls-1{fill:#394189;}.cls-2{fill:#5d629c;}.cls-3{fill:#212121;}</style></defs><title>cmr-logo</title><path class="cls-1" d="M204.72,311h-1.27c0-9.16-7.72-18.15-17.51-18.15-14.17,0-16.08,17.59-16.08,28s1.91,28,16.08,28c10,0,17.51-9.88,17.51-19.83h1.27v18.87h-1.27c0-1.59-.8-4-2.71-4-2.39,0-6.61,6.21-14.8,6.21-13.46,0-25.16-13-25.16-29.29s11.7-29.3,25.16-29.3c8.11,0,11.62,5.81,14.56,5.81,2.23,0,2.95-1.51,2.95-3.42h1.27Z" transform="translate(-158.25 -290.39)"/><path class="cls-1" d="M237,344.6c0,1.51.24,3.5,2.38,3.5,1.84,0,3-1.51,4.14-3.19l.88.64c-1.51,2.63-3.58,4.3-7,4.3-3.74,0-6.44-2.15-7-4.94h-.16c-2.71,3.59-6.29,4.94-11.54,4.94-6.21,0-9.95-3.1-9.95-8.52,0-8.91,11.86-11.14,20.06-11.14h1.51V320.4c0-3.74-3.5-4.62-6.53-4.62-2.31,0-7.72.88-7.72,3.74,0,1.91,2.63,1,2.63,4.62a3.44,3.44,0,0,1-3.66,3.34c-2.23,0-3.51-1.75-3.51-4.46,0-4,4.3-8.51,12.26-8.51,6.05,0,13.22,3.1,13.22,9.23Zm-8-13.14c-5.81,0-13.06.16-13.06,8.68,0,4.46.72,7.8,5.81,7.8,6,0,8.6-4.46,8.6-6.05V331.46Z" transform="translate(-158.25 -290.39)"/><path class="cls-1" d="M248.1,293.65h-6.37v-1.27h6.37c2.55,0,5.1-.16,6.69-2v57.23h6.36v1.28H241.73v-1.28h6.37Z" transform="translate(-158.25 -290.39)"/><path class="cls-1" d="M265.37,317.53H259v-1.27h6.36c2.55,0,5.1-.16,6.69-1.75v33.11h6.37v1.28H259v-1.28h6.36Zm3.35-21.41a4.06,4.06,0,1,1-4.06,4.06A4.08,4.08,0,0,1,268.72,296.12Z" transform="translate(-158.25 -290.39)"/><path class="cls-1" d="M283.84,317.53h-7.16v-1.27h7.16v-5.49c0-9.95,4.54-20.38,12.5-20.38,4.93,0,7.16,3.58,7.16,7.24a3.65,3.65,0,0,1-3.82,3.74,3.08,3.08,0,0,1-3.34-3.18c0-3.66,4.3-2.71,4.3-4.38,0-1.19-1.84-2.15-4-2.15-3.82,0-6.13,2.15-6.13,11v13.61h9.07v1.27h-9.07v30.09h7.24v1.28H276.68v-1.28h7.16Z" transform="translate(-158.25 -290.39)"/><path class="cls-1" d="M316.47,314.51c10.27,0,16.88,8.51,16.88,17.67s-6.61,17.67-16.88,17.67-16.87-8.52-16.87-17.67S306.21,314.51,316.47,314.51Zm9.24,14.56c0-6.92-.32-13.29-9.24-13.29s-9.23,6.37-9.23,13.29v6.21c0,6.93.32,13.3,9.23,13.3s9.24-6.37,9.24-13.3Z" transform="translate(-158.25 -290.39)"/><path class="cls-1" d="M339.24,317.53h-6.69v-1.27h6.69c2.55,0,5.09-.16,6.69-1.75v9.39h.16c1-3.58,3.74-9.39,10.26-9.39,2.95,0,5.26,1.91,5.26,4.69A3.5,3.5,0,0,1,358,323c-2.63,0-3.51-1.36-3.51-3.51A3.81,3.81,0,0,1,356.2,316a1.79,1.79,0,0,0-1.12-.24c-3.26,0-9.15,5.18-9.15,15.52v16.32h7.24v1.28H332.55v-1.28h6.69Z" transform="translate(-158.25 -290.39)"/><path class="cls-1" d="M365,317.53h-6.29v-1.27H365c3.82,0,5.25,0,6.69-1.75v8.12h.15c2.08-3.82,6-8.12,11.87-8.12,8.51,0,10.9,4.3,10.9,9v24.12h6.29v1.28H381.59v-1.28h6.28v-26c0-4.38-2.15-5.81-4.69-5.81-6.69,0-10.11,6.69-11.54,9.39v22.45h6.05v1.28h-19v-1.28H365Z" transform="translate(-158.25 -290.39)"/><path class="cls-1" d="M404.75,317.53h-6.37v-1.27h6.37c2.55,0,5.09-.16,6.69-1.75v33.11h6.36v1.28H398.38v-1.28h6.37Zm3.34-21.41a4.06,4.06,0,1,1-4.06,4.06A4.08,4.08,0,0,1,408.09,296.12Z" transform="translate(-158.25 -290.39)"/><path class="cls-1" d="M445.9,344.6c0,1.51.24,3.5,2.39,3.5,1.83,0,2.94-1.51,4.14-3.19l.87.64c-1.51,2.63-3.58,4.3-7,4.3-3.74,0-6.45-2.15-7-4.94h-.15c-2.71,3.59-6.29,4.94-11.55,4.94-6.21,0-9.95-3.1-9.95-8.52,0-8.91,11.86-11.14,20.06-11.14h1.51V320.4c0-3.74-3.5-4.62-6.52-4.62-2.31,0-7.72.88-7.72,3.74,0,1.91,2.62,1,2.62,4.62a3.44,3.44,0,0,1-3.66,3.34c-2.23,0-3.5-1.75-3.5-4.46,0-4,4.3-8.51,12.26-8.51,6.05,0,13.21,3.1,13.21,9.23Zm-8-13.14c-5.81,0-13.05.16-13.05,8.68,0,4.46.71,7.8,5.81,7.8,6,0,8.59-4.46,8.59-6.05V331.46Z" transform="translate(-158.25 -290.39)"/><path class="cls-2" d="M163.67,359.31h-5.42v-1h11.89l12.93,32.77,12.69-32.77h11.7v1H202v41.4h5.42v1H190v-1h5.79v-39h-.12l-15,39h-.56l-15.27-38.32h-.13V395.6c0,4.06.56,5.11,3.82,5.11h2.47v1H158.25v-1h1.6c3.26,0,3.82-1,3.82-5.11Z" transform="translate(-158.25 -290.39)"/><path class="cls-2" d="M228.18,398.41c0,1.16.19,2.68,1.83,2.68,1.4,0,2.25-1.16,3.16-2.43l.67.48a5.77,5.77,0,0,1-5.35,3.28c-2.86,0-4.93-1.64-5.35-3.76H223c-2.07,2.73-4.81,3.76-8.82,3.76-4.74,0-7.6-2.37-7.6-6.5,0-6.81,9.06-8.51,15.32-8.51h1.16v-7.48c0-2.86-2.68-3.53-5-3.53-1.76,0-5.9.67-5.9,2.86,0,1.46,2,.79,2,3.53a2.63,2.63,0,0,1-2.8,2.55c-1.7,0-2.67-1.34-2.67-3.4,0-3.11,3.28-6.51,9.36-6.51,4.62,0,10.09,2.37,10.09,7.05Zm-6.14-10c-4.44,0-10,.12-10,6.63,0,3.4.55,5.95,4.44,5.95,4.56,0,6.57-3.4,6.57-4.62v-8Z" transform="translate(-158.25 -290.39)"/><path class="cls-2" d="M235.66,377.74h-4.8v-1h4.8c2.92,0,4,0,5.11-1.34v6.2h.12c1.58-2.92,4.62-6.2,9.06-6.2,6.51,0,8.33,3.28,8.33,6.87v18.42h4.8v1H248.37v-1h4.8V380.84c0-3.34-1.64-4.44-3.59-4.44-5.1,0-7.72,5.11-8.81,7.18v17.14h4.62v1H230.86v-1h4.8Z" transform="translate(-158.25 -290.39)"/><path class="cls-2" d="M283.63,398.41c0,1.16.18,2.68,1.83,2.68,1.39,0,2.25-1.16,3.16-2.43l.67.48a5.77,5.77,0,0,1-5.35,3.28c-2.86,0-4.93-1.64-5.35-3.76h-.13c-2.06,2.73-4.8,3.76-8.81,3.76-4.74,0-7.6-2.37-7.6-6.5,0-6.81,9.06-8.51,15.32-8.51h1.16v-7.48c0-2.86-2.68-3.53-5-3.53-1.76,0-5.9.67-5.9,2.86,0,1.46,2,.79,2,3.53a2.63,2.63,0,0,1-2.8,2.55c-1.7,0-2.67-1.34-2.67-3.4,0-3.11,3.28-6.51,9.36-6.51,4.62,0,10.09,2.37,10.09,7.05Zm-6.14-10c-4.44,0-10,.12-10,6.63,0,3.4.55,5.95,4.44,5.95,4.56,0,6.57-3.4,6.57-4.62v-8Z" transform="translate(-158.25 -290.39)"/><path class="cls-2" d="M306.37,398.9c3.41,0,6.75,1.4,6.75,7,0,8.27-6.69,12.83-14,12.83-5.6,0-11.74-2-11.74-7.84,0-3.41,3.47-6,6.08-7.12v-.12c-3.34,0-4.92-2.31-4.92-5.65,0-4.26,2.06-6,5.95-6v-.12c-2.73-1.77-4.56-3.65-4.56-6.94,0-5.41,4.69-9.48,10.1-9.48A9.7,9.7,0,0,1,307.1,378c1.1-1.21,2.61-2.61,4.68-2.61,1.76,0,3.1,1,3.1,2.74a2.15,2.15,0,0,1-2.43,2.12,1.94,1.94,0,0,1-1.94-1.88,2.35,2.35,0,0,1,.66-2,5.17,5.17,0,0,0-3.46,2.25,9.4,9.4,0,0,1,2.37,6.08c0,5-5.35,8.94-10.09,8.94a9,9,0,0,1-4.56-1.1c-3.29.07-6,1-6,3.84a2.5,2.5,0,0,0,2.67,2.49Zm-10.58,4.74c-3.65.79-5.53,2.92-5.53,7,0,5.11,4.38,7.12,9.12,7.12,6.2,0,12.28-4,12.28-10,0-3.16-2.55-4.07-5.71-4.07ZM300,392.7c5,0,5-3.83,5-8.15,0-4.86,0-8.15-5-8.15s-5,4.93-5,8.15C295,388.44,295,392.7,300,392.7Z" transform="translate(-158.25 -290.39)"/><path class="cls-2" d="M319.69,392.27c-.07,4.32.54,9.18,6.26,9.18a9.62,9.62,0,0,0,9.73-8.39h1c-1,5.6-5.11,9.36-10.7,9.36-7.12,0-12.1-5.47-12.1-13.49,0-5.9,4.74-13.5,11.37-13.5,7.17,0,10.88,8,10.88,10.58a.49.49,0,0,1-.55.55H319.69Zm10.58-8.39c0-3.89-1-7.48-5-7.48-4.26,0-5.53,3.59-5.53,7.48v1.7h10.15a.39.39,0,0,0,.43-.42Z" transform="translate(-158.25 -290.39)"/><path class="cls-2" d="M335,400.72h4.8v-23H335v-1h4.8c2.92,0,4,0,5.11-1.34v6H345c1.64-3,4.19-6,8.75-6,3.89,0,7.79,1.09,8.33,6.51h.12a9.2,9.2,0,0,1,8.82-6.51c6.2.06,8.27,3.59,8.27,7.42v17.87h4.8v1H369.36v-1h4.8v-19c0-4.37-2-5.35-4.25-5.35-3.53,0-6.63,3.83-7.85,8.09v16.23h4.62v1H352.15v-1H357V380.6c0-3-1.52-4.2-4-4.2-3.65,0-6.38,2.86-8.14,7.18v17.14h4.62v1H335Z" transform="translate(-158.25 -290.39)"/><path class="cls-2" d="M388.63,392.27c-.06,4.32.55,9.18,6.26,9.18a9.62,9.62,0,0,0,9.73-8.39h1c-1,5.6-5.1,9.36-10.7,9.36-7.11,0-12.1-5.47-12.1-13.49,0-5.9,4.75-13.5,11.37-13.5,7.18,0,10.89,8,10.89,10.58a.49.49,0,0,1-.55.55H388.63Zm10.58-8.39c0-3.89-1-7.48-5-7.48-4.25,0-5.53,3.59-5.53,7.48v1.7h10.16a.38.38,0,0,0,.42-.42Z" transform="translate(-158.25 -290.39)"/><path class="cls-2" d="M408.69,377.74h-4.8v-1h4.8c2.92,0,4,0,5.11-1.34v6.2h.12c1.58-2.92,4.62-6.2,9.06-6.2,6.51,0,8.33,3.28,8.33,6.87v18.42h4.81v1H421.4v-1h4.81V380.84c0-3.34-1.65-4.44-3.59-4.44-5.11,0-7.72,5.11-8.82,7.18v17.14h4.62v1H403.89v-1h4.8Z" transform="translate(-158.25 -290.39)"/><path class="cls-2" d="M438.42,377.74h-5.28v-1c6.32.12,8.63-2.56,9.66-8.51h.73v8.51h8.39v1h-8.39v20.43c0,2.49,1,3.28,3,3.28,3,0,4.38-2.79,4.74-3.83l.92.18a6.66,6.66,0,0,1-6.69,4.62c-4.26,0-7.06-1.39-7.06-5.41Z" transform="translate(-158.25 -290.39)"/><path class="cls-3" d="M299.26,350.71h7c5.34,0,7.52,2.88,7.52,6.4a6,6,0,0,1-4.29,5.76l6.3,8.26-3.65,2.18L306,364.76a1.69,1.69,0,0,0-1.47-.77h-1.28l0,8.87H299Zm6.59,10a3.35,3.35,0,0,0,3.65-3.43c0-2.11-1.67-3.2-3.75-3.2h-2.37l-.06,6.63Z" transform="translate(-158.25 -290.39)"/><path class="cls-3" d="M321.24,365.27c0,2.21,1,4.9,3.71,4.9a5.36,5.36,0,0,0,3.75-2.08l2.24,2.05a8.81,8.81,0,0,1-6.56,3.17c-4.1,0-7-3.4-7-8.45,0-4.29,2.65-8.58,7.36-8.58,4.54,0,6.65,3.36,6.65,9Zm6.4-2.75c-.1-1.73-.9-3.49-2.94-3.49-1.76,0-3.11,1.89-3.27,3.49Z" transform="translate(-158.25 -290.39)"/><path class="cls-3" d="M332.47,357.4l3.91-1.12L339.87,368h.06l4.19-11.71,3.71,1.12-6.21,15.46h-3.71Z" transform="translate(-158.25 -290.39)"/><path class="cls-3" d="M350.71,356.73h3.91l-.16,16.13h-3.91Zm0-6h3.9l0,3.78h-3.91Z" transform="translate(-158.25 -290.39)"/><path class="cls-3" d="M362.14,365.27c0,2.21,1,4.9,3.71,4.9a5.36,5.36,0,0,0,3.74-2.08l2.24,2.05a8.78,8.78,0,0,1-6.56,3.17c-4.09,0-7-3.4-7-8.45,0-4.29,2.66-8.58,7.36-8.58s6.66,3.36,6.66,9Zm6.4-2.75c-.1-1.73-.9-3.49-3-3.49-1.76,0-3.1,1.89-3.26,3.49Z" transform="translate(-158.25 -290.39)"/><path class="cls-3" d="M373.46,357.24l3.84-1,2.95,11.81h.06l3.17-11.36h4.13l3,11.36h.07l3.26-11.81,3.62,1.19-5.18,15.39h-4l-2.85-11.81h-.07l-3.13,11.81h-3.94Z" transform="translate(-158.25 -290.39)"/></svg>